<?xml version="1.0" encoding="UTF-8"?>
<svg xmlns="http://www.w3.org/2000/svg" xmlns:xlink="http://www.w3.org/1999/xlink" width="20px" height="19px" viewBox="0 0 20 19" version="1.1">
<g id="surface1">
<path style=" stroke:none;fill-rule:nonzero;fill:rgb(0%,0%,0%);fill-opacity:1;" d="M 5.140625 0.425781 C 4.148438 0.519531 3.203125 0.894531 2.390625 1.527344 C 2.183594 1.691406 1.71875 2.15625 1.546875 2.371094 C 0.902344 3.1875 0.515625 4.160156 0.421875 5.195312 C 0.402344 5.425781 0.402344 5.941406 0.421875 6.222656 C 0.550781 7.984375 1.222656 9.449219 2.609375 10.980469 C 2.71875 11.101562 2.984375 11.375 3.195312 11.585938 C 3.738281 12.121094 4 12.363281 5.109375 13.34375 C 6.238281 14.339844 6.804688 14.859375 7.382812 15.441406 C 8.351562 16.417969 9.085938 17.296875 9.804688 18.359375 C 9.878906 18.472656 9.953125 18.574219 9.964844 18.589844 C 9.984375 18.613281 10.011719 18.582031 10.265625 18.203125 C 10.910156 17.242188 11.46875 16.542969 12.296875 15.664062 C 12.949219 14.976562 13.519531 14.441406 14.953125 13.164062 C 15.863281 12.351562 15.996094 12.226562 16.492188 11.753906 C 17.035156 11.238281 17.519531 10.714844 17.898438 10.242188 C 18.9375 8.9375 19.46875 7.660156 19.578125 6.167969 C 19.601562 5.859375 19.589844 5.238281 19.554688 4.984375 C 19.421875 4.015625 19.046875 3.136719 18.441406 2.371094 C 18.289062 2.179688 17.832031 1.71875 17.640625 1.566406 C 16.808594 0.902344 15.847656 0.515625 14.796875 0.421875 C 14.535156 0.398438 13.9375 0.414062 13.6875 0.449219 C 13.085938 0.53125 12.5625 0.691406 12.039062 0.949219 C 11.242188 1.34375 10.566406 1.921875 10.070312 2.636719 L 9.980469 2.761719 L 9.878906 2.617188 C 9.3125 1.816406 8.554688 1.199219 7.664062 0.816406 C 7.191406 0.613281 6.628906 0.472656 6.09375 0.421875 C 5.882812 0.40625 5.355469 0.40625 5.140625 0.425781 Z M 6.191406 1.246094 C 6.566406 1.296875 6.898438 1.382812 7.242188 1.519531 C 8.132812 1.867188 8.894531 2.519531 9.394531 3.351562 C 9.492188 3.515625 9.859375 4.269531 9.953125 4.503906 C 9.964844 4.53125 9.976562 4.550781 9.980469 4.546875 C 9.984375 4.542969 10.085938 4.320312 10.210938 4.054688 C 10.589844 3.246094 10.765625 2.980469 11.234375 2.511719 C 11.585938 2.15625 11.914062 1.917969 12.351562 1.695312 C 13.441406 1.136719 14.734375 1.0625 15.886719 1.488281 C 16.117188 1.570312 16.511719 1.765625 16.710938 1.890625 C 17.265625 2.242188 17.765625 2.75 18.117188 3.304688 C 18.230469 3.484375 18.449219 3.933594 18.523438 4.132812 C 18.734375 4.707031 18.820312 5.339844 18.78125 5.984375 C 18.679688 7.757812 17.972656 9.128906 16.289062 10.824219 C 15.820312 11.292969 15.507812 11.585938 14.453125 12.527344 C 13.992188 12.9375 13.460938 13.417969 13.265625 13.59375 C 11.941406 14.808594 10.960938 15.867188 10.15625 16.949219 C 10.0625 17.082031 9.976562 17.1875 9.96875 17.1875 C 9.964844 17.1875 9.917969 17.128906 9.867188 17.058594 C 9.726562 16.863281 9.371094 16.425781 9.140625 16.152344 C 8.75 15.699219 8.523438 15.453125 7.9375 14.867188 C 7.210938 14.132812 6.886719 13.835938 5.617188 12.714844 C 4.179688 11.445312 3.664062 10.957031 3.105469 10.324219 C 2.003906 9.082031 1.425781 7.886719 1.257812 6.507812 C 1.179688 5.875 1.191406 5.308594 1.289062 4.800781 C 1.578125 3.320312 2.605469 2.078125 4 1.523438 C 4.359375 1.382812 4.785156 1.277344 5.148438 1.238281 C 5.242188 1.230469 5.347656 1.222656 5.382812 1.21875 C 5.507812 1.207031 6.011719 1.222656 6.191406 1.246094 Z M 6.191406 1.246094 "/>
</g>
</svg>
